<svg width="72.000000" height="60.000000" viewBox="0 0 72 60" fill="none" xmlns="http://www.w3.org/2000/svg" xmlns:xlink="http://www.w3.org/1999/xlink">
	<desc>
			Created with Pixso.
	</desc>
	<defs/>
	<path id="Vector" d="M37.1871 21.4143C35.0796 19.5706 34.9463 17.8623 36.6536 15.7473C36.8937 15.449 37.1604 15.1506 37.3738 14.8254C38.9478 12.5476 38.4142 10.27 36.0133 9.02271C35.8266 8.91431 35.6132 8.80566 35.3731 8.69727C35.3998 8.83276 35.3998 8.91431 35.4264 8.96851C36.2267 10.541 36.0667 11.9783 34.9463 13.3069C34.7595 13.5239 34.5995 13.7678 34.4661 14.012C32.4387 17.293 34.4394 20.8179 37.1871 21.4143Z" fill="#C99E71" fill-opacity="1.000000" fill-rule="nonzero"/>
	<path id="Vector" d="M33.0256 18.6216C31.7984 17.293 31.7718 16.127 32.8655 14.717C33.0256 14.5271 33.1856 14.3103 33.319 14.0933C34.3327 12.575 34.0659 10.9751 32.6521 10.0532C32.5454 9.97168 32.412 9.89038 32.2786 9.80908C32.2786 9.89038 32.2786 9.94458 32.3053 9.99878C32.7588 11.0835 32.5987 12.0867 31.9051 12.9817C31.7984 13.1172 31.6917 13.2798 31.585 13.4426C30.3046 15.666 31.3983 18.1606 33.0256 18.6216Z" fill="#C99E71" fill-opacity="1.000000" fill-rule="nonzero"/>
	<path id="Vector" d="M38.2008 19.8147C37.854 19.218 37.694 18.5945 38.0408 17.9436C38.2008 17.6453 38.4142 17.3743 38.601 17.1301C39.0278 16.5608 39.1078 15.9641 38.841 15.3677C38.4142 15.9641 38.0141 16.5337 37.5872 17.1301C36.7869 18.2148 36.947 19.1096 38.2008 19.8147Z" fill="#C99E71" fill-opacity="1.000000" fill-rule="nonzero"/>
	<path id="Vector" d="M7.49613 36.762L7.49613 35.325L7.4161 35.2979C6.88257 35.0808 6.37572 34.9453 5.86886 34.9453C5.12192 34.9453 4.50835 35.2166 4.08153 35.7588C3.62803 36.301 3.41462 37.0332 3.38794 37.9551C3.38794 38.877 3.60135 39.6362 4.02818 40.1514C4.455 40.6938 5.06857 40.9648 5.81551 40.9919L5.84219 40.9919C6.37572 40.9919 6.88257 40.8564 7.38943 40.5852L7.46945 40.5581L7.46945 39.6904L7.28271 39.7991C6.77586 40.0701 6.29568 40.1785 5.86886 40.1785C5.36201 40.1785 4.98853 39.9888 4.72177 39.6362C4.455 39.2837 4.29494 38.7144 4.32162 37.928C4.32162 37.1958 4.455 36.6536 4.74844 36.301C5.01521 35.9485 5.38868 35.7859 5.89554 35.7859C6.21565 35.7859 6.50909 35.8401 6.72251 35.9214L6.72251 36.7891L7.49613 36.762Z" fill="#C99E71" fill-opacity="1.000000" fill-rule="nonzero"/>
	<path id="Vector" d="M11.8177 41.0459C12.5113 41.0459 13.0715 40.7749 13.4717 40.2324C13.8718 39.6902 14.0852 38.9309 14.0852 37.9819C14.0852 37.0872 13.8985 36.355 13.525 35.8398C13.1516 35.2976 12.618 35.0264 11.9244 35.0264C11.2308 35.0264 10.6706 35.2976 10.2438 35.8398C9.84366 36.3821 9.63025 37.1143 9.63025 38.0361C9.63025 38.958 9.81699 39.7173 10.2171 40.2595C10.6173 40.7478 11.1508 41.0188 11.8177 41.0459ZM10.9107 36.3279C11.1508 36.0024 11.4709 35.8127 11.8978 35.8398C12.3246 35.8398 12.6447 36.0024 12.8581 36.355C13.0982 36.7075 13.2049 37.2498 13.2049 37.9819C13.2049 38.7412 13.0715 39.3105 12.8314 39.6631C12.5913 40.0156 12.2712 40.2053 11.8711 40.2053C11.4443 40.2053 11.1508 40.0156 10.9107 39.6631C10.6706 39.2834 10.5639 38.7141 10.5639 37.9819C10.5373 37.2227 10.6706 36.6533 10.9107 36.3279Z" fill="#C99E71" fill-opacity="1.000000" fill-rule="nonzero"/>
	<path id="Vector" d="M16.2193 40.1782L16.2193 40.9646L18.4068 40.9917L18.4068 40.2053L17.7132 40.2053L17.7132 38.4971L18.5668 38.4971L18.5668 39.1208L19.3138 39.1208L19.3405 37.2227L18.5668 37.2227L18.5668 37.7378L17.7132 37.7107L17.7399 35.9211L19.2604 35.9211L19.2604 36.6533L20.034 36.6533L20.0607 35.1619L16.2727 35.1348L16.2727 35.9211L16.8595 35.9211L16.8329 40.1782L16.2193 40.1782Z" fill="#C99E71" fill-opacity="1.000000" fill-rule="nonzero"/>
	<path id="Vector" d="M21.7947 40.2327L21.7947 41.019L23.9555 41.019L23.9822 40.2327L23.262 40.2327L23.2886 38.5515L24.1156 38.5515L24.1156 39.1753L24.8892 39.1753L24.8892 37.25L24.1423 37.25L24.1423 37.7651L23.2886 37.7651L23.2886 35.9756L24.8359 35.9756L24.8092 36.7078L25.6095 36.7078L25.6362 35.2163L21.8214 35.1621L21.8214 35.9485L22.435 35.9485L22.4083 40.2327L21.7947 40.2327Z" fill="#C99E71" fill-opacity="1.000000" fill-rule="nonzero"/>
	<path id="Vector" d="M27.3701 40.2593L27.3434 41.0457L31.2382 41.0728L31.2649 39.5813L30.4646 39.5813L30.4646 40.2864L28.8373 40.2864L28.8373 38.4968L29.5843 38.4968L29.5843 39.1204L30.3579 39.1204L30.3579 37.1953L29.611 37.1953L29.611 37.7104L28.864 37.7104L28.864 36.0022L30.3846 36.0293L30.3846 36.7344L31.1849 36.7615L31.1849 35.2429L27.3968 35.2158L27.3968 36.0022L28.0104 36.0022L27.957 40.2864L27.3701 40.2593Z" fill="#C99E71" fill-opacity="1.000000" fill-rule="nonzero"/>
	<path id="Vector" d="M33.239 40.314L33.2123 41.1003L37.1071 41.1274L37.1337 39.636L36.3334 39.6089L36.3334 40.3411L34.7062 40.314L34.7062 38.5244L35.4531 38.5244L35.4531 39.1479L36.2267 39.1479L36.2267 37.25L35.4798 37.25L35.4798 37.7651L34.7062 37.738L34.7328 36.0569L36.2534 36.0569L36.2534 36.7891L37.0537 36.7891L37.0537 35.2976L33.2656 35.2705L33.2656 36.0298L33.8792 36.0569L33.8258 40.314L33.239 40.314Z" fill="#C99E71" fill-opacity="1.000000" fill-rule="nonzero"/>
	<path id="Vector" d="M48.7914 36.9788L48.7914 35.623L48.7113 35.5959C48.2845 35.3789 47.831 35.2705 47.3242 35.2705C46.7373 35.2705 46.2838 35.406 45.937 35.7043C45.5902 36.0027 45.4034 36.3823 45.4034 36.8704C45.4034 37.1414 45.4568 37.3855 45.5368 37.5754C45.6435 37.7651 45.7502 37.9277 45.9103 38.0635C46.0704 38.199 46.2304 38.3074 46.4172 38.3887C46.6039 38.4702 46.7906 38.5515 46.9507 38.6057C47.1374 38.687 47.2975 38.7683 47.4575 38.8225C47.5909 38.9041 47.6976 38.9583 47.8043 39.0396C47.8844 39.1208 47.9644 39.2021 47.9911 39.3108C48.0444 39.3921 48.0711 39.5276 48.0711 39.6631C48.0711 39.9343 47.9911 40.1243 47.8043 40.2869C47.6176 40.4495 47.3508 40.5039 47.0307 40.5039C46.7106 40.5039 46.4438 40.4766 46.2304 40.3953L46.2304 39.5818L45.4301 39.5818L45.4301 40.9648L45.5102 40.9919C45.9637 41.1816 46.4438 41.29 46.9774 41.29L47.004 41.29C47.5909 41.29 48.0711 41.1274 48.4179 40.8291C48.7914 40.531 48.9781 40.0972 48.9781 39.5818C48.9781 39.2837 48.9248 39.0396 48.8447 38.8499C48.7647 38.6599 48.6313 38.4973 48.4713 38.3616C48.3379 38.2261 48.1511 38.1177 47.9644 38.0364C47.7777 37.9548 47.5909 37.8735 47.4042 37.7922C47.2175 37.7109 47.0574 37.6567 46.8973 37.5754C46.764 37.521 46.6306 37.4397 46.5505 37.3855C46.4705 37.3042 46.3905 37.2229 46.3371 37.1414C46.2838 37.0601 46.2571 36.9517 46.2571 36.8162C46.2571 36.5991 46.3371 36.4365 46.4972 36.2737C46.6572 36.1111 46.924 36.0298 47.2441 36.0569C47.5109 36.0569 47.751 36.1111 47.9377 36.1653L47.9377 36.9517L48.7914 36.9788Z" fill="#C99E71" fill-opacity="1.000000" fill-rule="nonzero"/>
	<path id="Vector" d="M50.9522 40.4497L50.9522 41.2361L53.033 41.2632L53.033 40.4768L52.4194 40.4768L52.4461 38.6602L54.9003 38.6873L54.9003 40.4768L54.2868 40.4768L54.2868 41.2632L56.3409 41.2632L56.3676 40.5039L55.754 40.5039L55.7807 36.2197L56.3942 36.2197L56.3942 35.4333L54.3135 35.4333L54.3135 36.1926L54.927 36.2197L54.9003 37.9009L52.4461 37.8738L52.4461 36.1926L53.0597 36.1926L53.0597 35.4062L51.0056 35.4062L50.9789 36.1926L51.5924 36.1926L51.5658 40.4497L50.9522 40.4497Z" fill="#C99E71" fill-opacity="1.000000" fill-rule="nonzero"/>
	<path id="Vector" d="M60.6892 41.4258C61.3828 41.4258 61.943 41.1548 62.3431 40.6123C62.7433 40.0701 62.9567 39.3108 62.9567 38.3618C62.9567 37.467 62.7699 36.7349 62.3965 36.2197C62.023 35.6775 61.4895 35.4062 60.7959 35.4062C60.1023 35.4062 59.5421 35.6775 59.1153 36.2197C58.7151 36.762 58.5017 37.4941 58.5017 38.416C58.5017 39.3379 58.6884 40.0972 59.0886 40.6396C59.4887 41.1277 60.0223 41.3987 60.6892 41.4258ZM59.7822 36.7078C60.0223 36.3823 60.3424 36.2197 60.7692 36.2197C61.196 36.2197 61.5162 36.3823 61.7296 36.7349C61.9697 37.0874 62.0764 37.6296 62.0764 38.3618C62.0764 39.1211 61.943 39.6904 61.7029 40.043C61.4628 40.3955 61.1427 40.5852 60.7425 40.5852C60.3157 40.5852 60.0223 40.3955 59.7822 40.043C59.5421 39.6633 59.4354 39.094 59.4354 38.3618C59.4354 37.6025 59.5421 37.0332 59.7822 36.7078Z" fill="#C99E71" fill-opacity="1.000000" fill-rule="nonzero"/>
	<path id="Vector" d="M65.1175 40.5581L65.1175 41.3445L67.305 41.3716L67.305 40.5852L66.6114 40.5852L66.6114 39.094L66.9582 39.094C67.5984 39.094 68.1053 38.9312 68.4521 38.6328C68.7989 38.3076 68.9856 37.8467 68.9856 37.2229C68.9856 36.6807 68.8255 36.2739 68.5321 35.9756C68.2387 35.6772 67.7585 35.5417 67.1449 35.5417L65.1975 35.5146L65.1975 36.301L65.8111 36.301L65.7844 40.5852L65.1175 40.5581ZM66.9849 38.3076L66.6114 38.3076L66.6381 36.301L67.0649 36.301C67.4384 36.301 67.7051 36.3823 67.8652 36.5178C68.0252 36.6536 68.1053 36.8975 68.1053 37.2771C68.1053 37.6567 67.9986 37.9009 67.8385 38.0635C67.5984 38.2261 67.3316 38.3076 66.9849 38.3076Z" fill="#C99E71" fill-opacity="1.000000" fill-rule="nonzero"/>
	<path id="Vector" d="M63.3034 31.8269C63.4368 31.7183 63.5435 31.6099 63.6769 31.5015C65.1174 30.2 65.0908 29.5762 63.5435 28.3289C60.4491 25.8613 60.4491 25.8613 62.6632 22.5532C63.6769 21.0078 63.4368 20.0044 61.7029 19.4893C58.395 18.4861 57.5413 18.8657 59.0886 14.1475C59.1152 14.0662 59.1686 13.9578 59.1953 13.8765C59.5421 12.6021 59.1686 11.9783 57.8348 11.8157C57.0078 11.7073 56.1541 11.7886 55.3272 11.7344C53.5932 11.6528 53.193 11.1919 53.1397 9.42944C53.1397 9.02271 53.1397 8.61597 53.1397 8.23633C53.1397 5.5791 52.7395 5.25366 50.2053 5.85034C46.7373 6.66357 46.7373 6.66357 45.4568 3.24707C44.6299 1.05078 44.2297 0.915283 42.309 2.1897C39.1879 4.22339 39.1878 4.22339 36.8136 1.29492C35.4265 -0.44043 34.8129 -0.44043 33.4524 1.34912C31.0248 4.52148 31.1582 4.41309 28.0371 2.2439C26.063 0.861084 25.5295 1.13208 24.7558 3.46411C23.8755 6.14844 23.5554 7.36865 20.4609 5.93164C20.2475 5.823 19.9807 5.85034 19.7406 5.7959C17.6866 5.30786 17.1797 5.6062 17.2064 7.72119C17.233 11.8428 16.7529 11.8157 13.0982 11.7886C11.1508 11.7886 10.6973 12.4663 11.2308 14.3103C12.3246 18.1606 12.3246 18.1606 8.61652 19.5164C6.88255 20.1401 6.56243 21.062 7.60281 22.5532C10.0037 26.0242 10.0571 25.9429 6.66914 28.4375C5.20193 29.522 5.20193 30.3625 6.58911 31.5015C6.74917 31.637 6.90923 31.7454 7.06928 31.8811L0 31.8811L0 32.9927L71.8933 32.9927L71.8933 31.8811L63.3034 31.8811L63.3034 31.8269ZM11.7644 29.9016C11.791 16.8591 22.3016 6.25708 35.133 6.22974C48.0178 6.22974 58.5817 16.9675 58.5017 30.0913C58.5017 30.6609 58.475 31.2573 58.4216 31.8269L49.6984 31.8269C52.3127 30.01 53.5932 27.4341 52.5795 25.8342C52.0193 24.9395 50.8188 24.5598 49.3249 24.7498C49.3783 24.3701 49.4316 23.9905 49.4583 23.6108C49.5117 23.1499 49.3516 22.689 49.0315 22.3364C48.7114 21.9839 48.2579 21.7671 47.7777 21.7671L23.502 21.7671C23.0219 21.7671 22.5684 21.9839 22.2482 22.3364C21.9281 22.689 21.7947 23.1228 21.8214 23.6108C22.0882 26.729 23.1819 29.5491 24.8359 31.8269L11.8444 31.8269C11.791 31.2031 11.7644 30.5525 11.7644 29.9016ZM46.5773 31.6099C47.6443 30.0642 48.4713 28.3018 48.9781 26.458C49.9919 26.2139 50.8188 26.3496 51.1123 26.8105C51.3524 27.1902 51.2457 27.8137 50.8455 28.4917C50.392 29.251 49.6184 30.01 48.658 30.6338C47.9644 31.0947 47.2708 31.4202 46.5773 31.6099ZM9.81697 29.4136C10.1371 15.178 21.5546 4.11475 35.4531 4.25049C49.3516 4.38599 60.9826 16.3711 60.3957 31.176C60.3957 31.3931 60.369 31.6099 60.369 31.8269L59.302 31.8269C59.3553 31.2302 59.382 30.6067 59.382 29.9829C59.4087 16.4795 48.5246 5.38916 35.2664 5.36206C21.8481 5.33496 10.9374 16.344 10.9107 29.9287C10.9107 30.5796 10.9374 31.2031 10.9907 31.8269L9.87032 31.8269C9.81697 31.0405 9.81697 30.2271 9.81697 29.4136Z" fill="#C99E71" fill-opacity="1.000000" fill-rule="nonzero"/>
	<path id="Vector" d="M0 44.9238L11.4176 44.9238C10.6173 48.0691 10.8574 48.0962 14.5654 48.2048C16.6462 48.259 17.073 48.6929 17.1797 50.7537C17.3664 54.8752 17.3664 54.8752 21.2345 53.7363C22.9952 53.2212 23.6354 53.5193 24.3023 55.2275C24.5691 55.8784 24.7025 56.5564 24.9426 57.207C25.4494 58.5898 26.1697 58.8882 27.4502 58.156C28.2238 57.7222 28.8907 57.1257 29.6376 56.6648C30.5713 56.0681 31.4516 55.9597 32.1986 57.0444C32.7321 57.8037 33.319 58.5627 33.9326 59.2678C34.7595 60.2439 35.5332 60.2439 36.3868 59.2678C36.947 58.6443 37.4005 57.9392 37.934 57.2883C38.9478 56.041 39.6413 55.9326 40.9485 56.8274C41.6421 57.2883 42.309 57.7764 43.0293 58.2104C44.123 58.9153 44.87 58.5627 45.2968 57.3425C45.5635 56.5835 45.9103 55.8513 46.1237 55.092C46.4705 53.7363 47.2975 53.3025 48.5513 53.6006C49.3249 53.7905 50.0452 54.116 50.7921 54.3328C52.3394 54.7937 53.1664 54.2244 53.2464 52.5703C53.2731 51.7839 53.2731 50.9705 53.2731 50.157C53.2464 48.9368 53.8866 48.3132 55.0337 48.2048C55.5139 48.1504 56.0208 48.2048 56.8477 48.2048C59.302 48.3945 60.0222 47.6082 58.9285 44.8967L72 44.8967L72 43.7849L0 43.7849L0 44.9238ZM53.2464 44.9238C48.9248 50.3198 42.3357 53.7634 35.053 53.655C27.797 53.655 21.2879 50.2383 17.0196 44.9238L53.2464 44.9238ZM35.0263 55.6072C26.5165 55.6072 19.1004 51.3501 14.5387 44.8967L15.9259 44.8967C20.3542 50.7537 27.3168 54.5227 35.1597 54.5227C42.9226 54.604 49.9118 50.7808 54.3401 44.8967L55.6206 44.8967C50.9522 51.4314 43.3494 55.7429 35.0263 55.6072Z" fill="#C99E71" fill-opacity="1.000000" fill-rule="nonzero"/>
</svg>
